# xmcd
#
# Track frame offsets:
#	150
#	12222
#	29650
#	45905
#	64530
#	85392
#	103179
#	118917
#	131180
#	146597
#	161985
#	179382
#	198665
#	211090
#
# Disc length: 2955 seconds
#
# Revision: 0
# Processed by: cddbd v1.5.1PL0 Copyright (c) Steve Scherf et al.
# Submitted via: audiograbber 1.83.01
#
DISCID=ce0b890e
DTITLE=Carl Sonny Leyland Trio - The Continental Club, Austin, Texas Live
DYEAR=1900
DGENRE=Boogie Woogie
TTITLE0=Bugle Call Rag
TTITLE1=Car's Boogie
TTITLE2=Little Joe From Chicago
TTITLE3=Big Cat Little Cat
TTITLE4=Sheik Of Arab
TTITLE5=The Dirty Dozens
TTITLE6=Shreveport Farwell
TTITLE7=Farrish Street Jive
TTITLE8=Rough And Rowdy Ways
TTITLE9=Jimtown Blues
TTITLE10=Shine
TTITLE11=When A Soldier Knocks
TTITLE12=Don't Tear My Clothes
TTITLE13=Wrap Your Troubles In Dreams
EXTD=
EXTT0=
EXTT1=
EXTT2=
EXTT3=
EXTT4=
EXTT5=
EXTT6=
EXTT7=
EXTT8=
EXTT9=
EXTT10=
EXTT11=
EXTT12=
EXTT13=
PLAYORDER=
